<?xml version="1.0" encoding="utf-8"?>
<!-- Generator: Adobe Illustrator 22.1.0, SVG Export Plug-In . SVG Version: 6.00 Build 0)  -->
<svg version="1.1" id="Layer_1" xmlns="http://www.w3.org/2000/svg" xmlns:xlink="http://www.w3.org/1999/xlink" x="0px" y="0px"
	 viewBox="0 0 1522.2 1522.2" style="enable-background:new 0 0 1522.2 1522.2;" xml:space="preserve">
<style type="text/css">
	.st0{fill:#FFFFFF;}
</style>
<g>
	<path class="st0" d="M0,1211.8C0,911.4,0,611,0,310.6c0.3-2.2,0.7-4.5,0.8-6.7c0.8-18.1,3.2-36.1,7.3-53.7
		C26,173.9,66.2,112,128.5,64.7C177.1,27.9,232,6.9,292.9,1.6c5.7-0.5,11.3-1.1,16.9-1.6c300.9,0,601.9,0,902.8,0
		c1.5,0.3,3,0.7,4.4,0.8c21.9,0.8,43.4,4.1,64.5,9.6c141.5,36.7,240.6,164.4,240.6,310.5c0.1,293.6,0,587.1,0,880.7
		c0,27.1-3.3,53.8-10.1,80.1c-36.5,141.3-164.5,240.5-310.5,240.6c-293.6,0.1-587.1,0-880.7,0c-27.2,0-54.1-3.1-80.4-10.3
		c-85.4-23.2-150.9-73-196.3-148.9c-24.6-41.2-38.6-86-42.6-133.8C1.1,1223.4,0.5,1217.6,0,1211.8z M549.1,997
		c-0.1-0.3-0.1-0.6-0.2-0.9c0.3-0.2,0.6-0.4,0.9-0.7c10.5-8,20.9-16.1,31.5-23.9c52.1-37.9,101.4-79.1,146.2-125.5
		c41.7-43.2,77.2-90.6,102.9-145.2c23.6-50.2,35-102.4,26.8-157.9c-3-20.4-7.9-40.3-17.1-58.8c-18.1-36.8-46.9-62.7-83.2-81
		c-39.1-19.8-81-26.7-124.2-28c-33.3-1-66.3,1.3-99.1,7.6c-35.2,6.7-68.7,18-99.7,36.4c-32.2,19.1-57.8,44.4-75.1,77.7
		c-9.7,18.8-14.6,39-16.7,60c-2.1,21.2-1.8,42.3,3.3,63.1c7.8,31.6,26.3,54,57.1,65.7c14.2,5.4,29.1,8.1,44.2,8.7
		c10.4,0.4,20.8-0.2,31.1-0.6c7.7-0.3,12.8-4.4,15-11.8c0.8-2.7,1.6-5.3,2-8.1c3.1-18.6,5.4-37.3,9.4-55.7
		c4.7-21.6,13.2-41.7,27.7-58.9c11.1-13,24.4-22,41.7-24.3c12.2-1.6,24.3-0.8,36.3,1.3c22.7,3.9,39.2,15.9,47.9,37.6
		c5.8,14.5,5.3,29.5,2.2,44.5c-4.1,20-13.6,37.5-25,54.1c-24.6,36.1-54.8,67.1-86.7,96.7c-32.6,30.2-67.8,57.3-102.1,85.4
		c-35,28.7-70,57.5-104.7,86.6c-11.7,9.8-22.3,20.8-30.5,33.8c-6,9.5-10.6,19.7-10.7,31.2c-0.1,21.7-0.1,43.4,0.1,65.1
		c0.1,6.7,0.6,13.4,1.6,20c4,25.5,17.6,42.8,43,50.1c18.5,5.3,37.4,6.4,56.4,6.5c115.3,0.1,230.6,0.1,345.9-0.1
		c11.3,0,22.8-1.1,34-2.8c20.2-3,34.6-14,42.4-33.2c4.6-11.3,7.2-22.9,8.1-35c1.6-21.1,2.9-42.2,4.3-63.3c0.5-7.3-2.5-12.4-9.4-14.6
		c-3.3-1.1-6.9-1.5-10.4-1.5c-87.7-0.1-175.3-0.1-263-0.1C552.1,997,550.6,997,549.1,997z M883.1,807.3c0.6,1.8,1,3,1.4,4.2
		c10.9,34.5,21.7,69,32.7,103.5c12.6,39.5,26.7,78.4,45.6,115.3c13.9,27.2,30.4,52.7,52.5,74.2c27.1,26.4,59.5,36.9,96.4,31
		c37.8-6,69.4-24.7,95.3-52.7c5.2-5.7,8.7-13,12.6-19.7c2.2-3.9,1.7-8-0.8-11.9c-3.3-5.1-6.1-10.5-9.4-15.6
		c-40.1-62.4-80.2-124.7-120.2-187.2c-26.5-41.4-52.9-82.9-79.3-124.4c-1-1.6-1.9-3.2-2.8-4.9c1.3-1.1,2.3-1.9,3.3-2.7
		c19.7-15.9,39.7-31.6,59.2-47.8c38.2-31.9,74.9-65.4,107.4-103.3c14.3-16.7,27.6-34,37.7-53.7c9-17.4,9.6-34.8,1.6-52.6
		c-14-31.3-33.1-58.9-58.2-82.3c-7.8-7.3-16.2-13.8-26-18.4c-11.3-5.3-22-4.9-32.4,2.2c-1.5,1-3,1.9-4.4,3
		c-11.7,8.4-20.9,19.1-29.7,30.3c-34.5,43.6-64.4,90.4-93.6,137.7c-16.7,27.1-33.4,54.2-50.6,80.9c-5,7.7-9.4,15.3-11.9,24.3
		c-14,51.4-35.1,99.6-65.5,143.4c-18.8,27.2-38.4,53.9-57.7,80.8c-0.8,1.1-1.6,2.2-2.4,3.3c0.2,0.2,0.5,0.4,0.7,0.6
		C817.1,845.6,849.8,826.6,883.1,807.3z"/>
</g>
</svg>
