<?xml version="1.0" encoding="utf-8"?>
<!-- Generator: Adobe Illustrator 25.1.0, SVG Export Plug-In . SVG Version: 6.00 Build 0)  -->
<svg version="1.1" id="Layer_1" xmlns="http://www.w3.org/2000/svg" xmlns:xlink="http://www.w3.org/1999/xlink" x="0px" y="0px"
	 viewBox="0 0 1817.2 386.2" style="enable-background:new 0 0 1817.2 386.2;" xml:space="preserve">
<style type="text/css">
	.st0{fill:#FF7000;}
	.st1{fill:#FFFFFF;}
</style>
<g>
	<path class="st0" d="M618,147.2c0,8.7-1.6,17.1-4.8,25.1c-3.2,8.1-7.2,15.7-12.1,22.8c-4.9,7.2-10.4,13.9-16.4,20.1
		c-6.1,6.2-12,11.9-17.9,16.8c-5.9,5-11.4,9.3-16.4,13c-5.1,3.7-9,6.7-11.7,8.8h69c1.1,0,2.1,0.3,3,0.8s1.4,1.5,1.4,3l-1.1,16
		c-0.4,5.4-1.9,9.8-4.5,13.2c-2.6,3.4-8,5-16.2,5h-89.1c-9.2,0-15.7-1.5-19.4-4.5c-3.7-3-5.6-8.1-5.6-15.4v-16.3
		c0-0.9,0.2-2,0.7-3.3s0.9-2.3,1.2-3c1.6-3.1,5-6.9,10.2-11.4s11-9.4,17.7-14.7c6.6-5.3,13.6-10.9,20.9-16.8c7.3-6,14-12,20.1-18.2
		s11.1-12.3,15.1-18.3c4-6.1,6-11.9,6-17.5c0-4.5-1.5-8.4-4.6-11.5c-3.1-3.2-8.1-4.8-14.9-4.8c-4.3,0-7.9,1.2-10.7,3.5
		c-2.8,2.4-5.1,5.3-6.8,8.8s-3,7.4-3.8,11.7s-1.4,8.2-1.8,11.8c-0.4,1.8-1,3.1-1.8,3.8s-3.1,1.1-6.9,1.1c-20.1,0-30.2-9.7-30.2-29.1
		c0-9.4,2-17.4,6.1-23.9c4.1-6.5,9.5-11.9,16.2-16c6.7-4.2,14.2-7.2,22.4-9.1s16.6-2.9,25.1-2.9c12.1,0,22.2,1.6,30.2,4.8
		c8,3.2,14.3,7.2,19,12.2s8,10.5,9.8,16.6C617.1,135.7,618,141.6,618,147.2z"/>
	<path class="st0" d="M719.6,268.1c0-4,0.3-9.2,1-15.6c0.6-6.4,1.3-13.2,1.9-20.4c0.6-7.2,1.3-14.1,1.9-20.8c0.6-6.7,1-12.3,1-16.8
		c0-4.7-1.1-8.9-3.4-12.6c-2.3-3.7-6.7-5.6-13.2-5.6c-6.3,0-11.6,1.5-15.8,4.6s-7.7,8.7-10.5,16.8c-2.8,8.2-5.1,19.4-6.9,33.7
		c-1.8,14.3-3.5,32.7-5.2,55.2c-0.2,2.2-0.6,3.6-1.4,4.3c-0.7,0.7-2.3,1.1-4.6,1.1h-9.8c-5.6,0-10.2-0.6-13.7-1.8
		c-3.5-1.2-6.3-2.9-8.4-5c-2.1-2.2-3.5-4.8-4.3-8s-1.2-6.8-1.2-11c0-2.7,0.1-6.6,0.4-11.5c0.3-5,0.8-11.9,1.5-20.6
		c0.7-8.8,1.6-19.9,2.6-33.4s2.2-30.2,3.7-50.1c0.2-4,0.6-6.3,1.4-7.1c0.5-0.5,2-0.8,4.3-0.8h10.6c5.4,0,9.9,0.6,13.4,1.9
		c3.5,1.3,6.4,2.9,8.6,5c2.2,2.1,3.7,4.5,4.6,7.3c0.9,2.8,1.4,5.7,1.6,8.6c5.6-9.6,12-16.3,19.3-20c7.2-3.7,16.3-5.6,27.2-5.6
		c7.6,0,14.2,0.8,19.8,2.4c5.6,1.6,10.3,4.4,14,8.3c3.7,3.9,6.5,9,8.3,15.2s2.7,14,2.7,23.2c0,2.9-0.2,7.1-0.5,12.5
		c-0.4,5.4-0.8,11.4-1.4,17.8c-0.5,6.4-1.1,13.1-1.8,20.1c-0.6,7-1.2,13.4-1.8,19.4c-0.5,6-1,11.2-1.4,15.8c-0.4,4.5-0.5,7.5-0.5,9
		c0,4-0.5,6.4-1.4,7.2c-0.9,0.8-2.9,1.2-6,1.2h-8.7c-5.8,0-10.5-0.5-14.1-1.6s-6.4-2.6-8.4-4.6s-3.4-4.5-4.2-7.5
		C720,275.3,719.6,271.9,719.6,268.1z"/>
	<path class="st0" d="M834,294.7c-7.1,0-13.8-1.3-20.2-3.8s-12-6.5-16.8-12c-4.8-5.4-8.6-12.3-11.4-20.6c-2.8-8.3-4.2-18.4-4.2-30.2
		c0-5.3,0.4-11.1,1.1-17.5c0.7-6.4,2-12.9,3.8-19.4s4.3-12.9,7.6-19c3.3-6.2,7.4-11.6,12.4-16.4c5-4.8,11-8.6,17.9-11.5
		c7-2.9,15.2-4.3,24.6-4.3c9.1,0,16.3,1.6,21.9,4.8c5.5,3.2,9,8.7,10.5,16.4c0.4-7.1,0.7-13.2,1.1-18.5c0.4-5.3,0.7-10.1,1-14.7
		c0.3-4.5,0.6-9.1,1-13.6s0.7-9.7,1.1-15.5c0.2-4,0.6-6.3,1.4-7.1c0.4-0.4,0.8-0.6,1.4-0.7c0.5-0.1,1.5-0.1,3-0.1h10.6
		c5.4,0,10,0.6,13.6,1.9s6.5,3,8.7,5.2s3.7,4.7,4.6,7.5c0.9,2.8,1.4,5.8,1.4,8.8c-0.7,9.1-1.4,17.3-1.9,24.9
		c-0.5,7.5-1.2,16.1-1.9,25.7c-0.7,9.6-1.5,19.5-2.2,29.7s-1.5,20.4-2.2,30.4c-0.7,10.1-1.5,19.3-2.2,27.7s-1.3,15.7-1.8,21.7
		c-0.5,6.1-0.8,10.1-1,12.1c-0.4,2.2-0.8,3.6-1.4,4.3c-0.5,0.7-2.1,1.1-4.6,1.1h-9.8c-3.8,0-7.4-0.3-10.7-1
		c-3.4-0.6-6.2-1.7-8.7-3.3c-2.4-1.5-4.3-3.6-5.7-6.2s-2-6-2-10.2c-3.3,6.9-8.2,12.5-14.8,16.8C852.2,292.5,844,294.7,834,294.7z
		 M857.6,176c-9.2,0-16.1,4-20.5,12.1s-6.7,18.9-6.7,32.5c0,4.7,0.3,9.3,1,13.9c0.6,4.5,1.8,8.6,3.4,12.2c1.6,3.6,3.8,6.5,6.7,8.7
		c2.8,2.2,6.4,3.3,10.7,3.3c7.8,0,14.3-3.8,19.6-11.4c5.3-7.6,7.9-19.6,7.9-35.9c0-4.5-0.3-8.9-0.8-13.2s-1.6-8-3.3-11.3
		c-1.6-3.3-3.9-5.9-6.8-7.9C865.9,177,862.2,176,857.6,176z"/>
	<path class="st1" d="M1089.9,274.3c0,1.5-0.9,3.3-2.6,5.6c-1.7,2.3-4.1,4.5-7.1,6.7s-6.4,4.1-10.3,5.7s-8,2.4-12.4,2.4
		c-6.7,0-12.6-2.1-17.7-6.4s-9.6-10.1-13.7-17.5s-7.8-16.3-11.3-26.5c-3.4-10.2-7-21.3-10.6-33.3l-10.3,6.8l-5.2,70.1
		c-0.2,1.5-0.5,2.5-1.1,3.1c-0.5,0.6-1.6,1-3.3,1h-14.9c-10.3,0-17.6-2-21.9-6.1c-4.3-4.1-6.4-10.1-6.4-18.1c0-2.5,0.1-6.4,0.4-11.5
		c0.3-5.2,0.7-11.2,1.2-18.2s1.1-14.6,1.8-23c0.6-8.3,1.3-16.8,2-25.5c1.3-17.4,2.3-31.2,3.1-41.3s1.4-18.2,1.8-24
		c0.4-5.9,0.6-10.2,0.8-13s0.3-5.5,0.3-8c0-2.7,1.4-4.1,4.3-4.1H972c5.8,0,10.5,0.6,14,1.8c3.5,1.2,6.3,2.9,8.3,5
		c2,2.2,3.3,4.8,4.1,8c0.7,3.2,1.1,6.8,1.1,11c0,4.2-0.2,10.9-0.7,20.2s-1.1,19.8-2,31.4c6.2-7.6,13.5-17,22.1-28.3
		c8.6-11.2,19.1-25.1,31.4-41.6c0.5-0.7,1.3-1.7,2.3-2.9c1-1.2,2.1-2.3,3.3-3.4c1.2-1.1,2.4-2,3.8-2.9s2.7-1.2,3.9-1.2
		c2.4,0,5.1,1.2,8.2,3.7c3.1,2.4,6,5.4,8.7,9c2.7,3.5,5,7.2,6.9,10.9c1.9,3.7,2.9,6.8,2.9,9.4c0,5.3-4.7,13.1-14.1,23.5
		s-22.9,22.4-40.5,36c3.1,5.3,6.6,10.9,10.6,17s8,12.2,12,18.5c4,6.2,7.9,12.3,11.7,18.2c3.8,5.9,7.2,11.1,10.2,15.8
		c3,4.6,5.4,8.4,7.2,11.3C1089,272.3,1089.9,274,1089.9,274.3z"/>
	<path class="st1" d="M1125,292c-5.6,0-10.2-0.6-13.7-1.8c-3.5-1.2-6.3-2.9-8.4-5c-2.1-2.2-3.5-4.8-4.3-8s-1.2-6.8-1.2-11
		c0-2.7,0.1-6.6,0.4-11.5c0.3-5,0.8-11.9,1.5-20.6c0.7-8.8,1.6-19.9,2.6-33.4s2.2-30.2,3.7-50.1c0.2-4,0.6-6.3,1.4-7.1
		c0.5-0.5,2-0.8,4.3-0.8h10.6c5.6,0,10.2,0.5,13.7,1.6s6.3,2.7,8.4,4.9s3.5,4.8,4.3,7.9c0.8,3.1,1.2,6.5,1.2,10.3
		c0,2.7-0.2,6.8-0.5,12.2c-0.4,5.4-0.9,12.8-1.5,22.1s-1.5,20.9-2.6,34.8c-1.1,13.9-2.4,30.6-4.1,50.1c-0.2,2.2-0.6,3.6-1.4,4.3
		c-0.7,0.7-2.3,1.1-4.6,1.1H1125z M1105.7,110.5c0-7.2,2.6-12.9,7.9-17.1s12.3-6.2,21.2-6.2c7.8,0,13.4,1.6,17,4.8
		c3.5,3.2,5.3,7.4,5.3,12.6c0,6.7-2.5,12.3-7.5,16.7c-5,4.4-12.3,6.7-21.9,6.7C1113,127.9,1105.7,122.1,1105.7,110.5z"/>
	<path class="st1" d="M1220.9,179.2c-0.5,6.9-1.1,13.7-1.8,20.4c-0.6,6.7-1.2,13-1.8,19c-0.5,6-1,11.3-1.2,16
		c-0.3,4.7-0.4,8.3-0.4,10.9c0,4.7,0.5,7.8,1.6,9.4c1.1,1.5,2.9,2.3,5.4,2.3c2,0,3.7-0.4,5.2-1.1c1.4-0.7,2.8-1.5,4.1-2.4
		c1.3-0.9,2.4-1.7,3.4-2.4s2.1-1.1,3.4-1.1s2.4,0.7,3.5,2.2s1.6,4.8,1.6,10.1c0,10-2.7,17.8-8.2,23.6c-5.4,5.8-14.8,8.7-28,8.7
		c-13,0-22.7-3-28.9-9.1c-6.2-6.1-9.4-15.3-9.4-27.8c0-2.7,0.1-5.9,0.4-9.6c0.3-3.7,0.7-8.6,1.2-14.5c0.5-6,1.2-13.3,2-22
		s1.7-19.5,2.6-32.3h-14.4c-1.5,0-2.3-0.3-2.6-1c-0.3-0.6-0.4-1.6-0.4-2.9l0.8-13.9c0.2-2.4,0.5-4.7,1-6.9c0.4-2.3,1.4-4.3,2.7-6.1
		c1.4-1.8,3.3-3.3,5.8-4.3c2.5-1.1,5.9-1.6,10.1-1.6c1.3-3.3,2.7-7.2,4.3-11.7c1.6-4.5,3.3-8.9,4.9-13.2c1.6-4.3,3.2-7.8,4.8-10.7
		c1.5-2.9,2.9-4.3,4.2-4.3h7.9c7.6,0,12.9,2.4,15.8,7.1s4.3,10.3,4.3,16.8c0,3.6-0.3,9-0.8,16h28.5c2.9,0,4.3,1.3,4.3,3.8l-1.1,14.7
		c-0.4,5.4-1.9,9.8-4.5,13.2s-8,5-16.2,5h-14.1V179.2z"/>
	<path class="st1" d="M1326.5,258.6c5.3,0,9.8-0.7,13.7-2.2c3.9-1.4,7.3-3.1,10.2-4.9c2.9-1.8,5.3-3.4,7.3-4.9
		c2-1.4,3.8-2.2,5.4-2.2c4.2,0,6.2,2.7,6.2,8.2c0,1.3-0.3,3-0.8,5.3s-1.3,4.6-2.2,7.1c-0.9,2.4-1.9,4.8-2.9,6.9
		c-1,2.2-1.9,3.8-2.9,4.9c-0.9,0.9-2.5,2.4-4.8,4.3c-2.3,2-5.3,4-9.1,6c-3.8,2-8.2,3.8-13.3,5.3c-5.1,1.5-10.7,2.3-16.8,2.3
		c-6.9,0-14-1-21.3-3.1s-14-5.7-20-10.9c-6-5.2-10.9-12.1-14.8-20.9c-3.9-8.8-5.8-19.8-5.8-33c0-4.7,0.3-10.1,1-16.2
		c0.6-6.1,1.9-12.3,3.9-18.7s4.7-12.8,8-19s7.8-11.8,13.4-16.7s12.4-8.8,20.2-11.8c7.9-3,17.3-4.5,28.1-4.5c8.9,0,16.5,1,23,3.1
		c6.4,2.1,11.7,4.9,15.9,8.4c4.2,3.5,7.3,7.7,9.4,12.4s3.1,9.8,3.1,15.2c0,9.8-3.1,17-9.2,21.6c-6.2,4.6-14.9,6.9-26.1,6.9
		c-2.7,0-4.6-0.2-5.6-0.7c-1-0.4-1.5-1.5-1.5-3.1c0-4.3-0.1-8.2-0.3-11.7c-0.2-3.4-0.7-6.3-1.5-8.7s-2-4.2-3.7-5.4
		c-1.6-1.3-4-1.9-7.1-1.9c-5.6,0-10.1,1.8-13.4,5.4c-3.4,3.6-5.9,8-7.6,13.2s-2.8,10.5-3.3,15.9s-0.7,10-0.7,13.6
		c0,12.9,2,21.8,6.1,26.9C1311.2,256,1317.7,258.6,1326.5,258.6z"/>
	<path class="st1" d="M1475.4,258.3c0.5-6,1.1-12.2,1.8-18.7c0.6-6.5,1.2-12.8,1.6-18.7c0.5-6,0.9-11.3,1.2-16
		c0.4-4.7,0.5-8.2,0.5-10.3c0-4.7-1.1-8.9-3.4-12.6c-2.3-3.7-6.7-5.6-13.2-5.6c-8.7,0-15.7,4.1-21.1,12.2c-5.3,8.2-8.5,19-9.4,32.6
		c-0.4,3.8-0.8,9.1-1.4,15.9c-0.5,6.8-1.1,13.7-1.6,20.6c-0.5,7-1,13.2-1.5,18.7s-0.7,8.9-0.7,10.2c0,2.2-0.4,3.6-1.2,4.3
		c-0.8,0.7-2.4,1.1-4.8,1.1h-9.8c-5.6,0-10.2-0.6-13.7-1.8c-3.5-1.2-6.3-2.9-8.4-5c-2.1-2.2-3.5-4.8-4.3-8s-1.2-6.8-1.2-11
		c0-4,0.3-9.6,1-16.7c0.6-7.2,1.5-17,2.6-29.6s2.4-28.7,3.8-48.2c1.4-19.6,3-43.8,4.6-72.8c0.2-4,0.6-6.3,1.4-7.1
		c0.5-0.5,2-0.8,4.3-0.8h10.6c5.4,0,10,0.6,13.6,1.9s6.5,3,8.7,5.2s3.7,4.7,4.6,7.5s1.4,5.8,1.4,8.8c0,3.3-0.3,9.3-1,18.2
		c-0.6,8.9-1.4,19.3-2.3,31.2c5.4-9.1,11.5-15.3,18.1-18.7s15-5.2,25.1-5.2c7.6,0,14.2,0.8,19.8,2.4c5.6,1.6,10.3,4.4,14,8.3
		c3.7,3.9,6.5,9,8.3,15.2s2.7,14,2.7,23.2c0,2.9-0.3,7.9-0.8,14.9c-0.5,7.1-1.2,15.1-2,24.2c-0.8,9.1-1.6,18.5-2.4,28.4
		c-0.8,9.9-1.5,18.9-2,27c-0.2,2-0.4,3.5-0.5,4.6c-0.2,1.1-0.5,1.9-1,2.4s-1.1,0.9-2,1.1s-2.2,0.3-3.8,0.3h-8.7
		c-5.8,0-10.5-0.5-14.1-1.6s-6.4-2.6-8.4-4.6s-3.4-4.5-4.2-7.5c-0.8-3-1.2-6.4-1.2-10.2c0-1.8,0-3.5,0.1-5.2
		C1475.1,261.3,1475.2,259.8,1475.4,258.3z"/>
	<path class="st1" d="M1602.3,294.7c-8,0-15.9-1-23.8-3s-14.9-5.4-21.2-10.3c-6.2-4.9-11.4-11.4-15.4-19.6c-4-8.2-6-18.4-6-30.7
		c0-4.5,0.4-10,1.1-16.3s2.1-12.9,4.2-19.6c2.1-6.7,5-13.4,8.7-20s8.6-12.5,14.5-17.8c6-5.3,13.2-9.5,21.7-12.8s18.7-4.9,30.4-4.9
		c9.4,0,17.4,1.1,23.9,3.3s11.8,5.1,15.8,8.8s6.9,8,8.7,12.9c1.8,4.9,2.7,10.1,2.7,15.8c0,8.3-1.7,15.4-5,21.2
		c-3.4,5.8-7.7,10.6-13,14.5s-11.3,6.9-17.8,9.1c-6.5,2.2-13,3.8-19.3,5s-12.2,1.9-17.5,2.2s-9.5,0.4-12.4,0.4
		c0,3.4,0.5,6.8,1.5,10.2s2.5,6.3,4.5,8.8s4.6,4.6,7.9,6.2s7.2,2.4,12,2.4c4.7,0,8.4-0.8,11-2.3s4.8-3.3,6.4-5.2s3-3.6,4.2-5.2
		c1.2-1.5,2.8-2.3,4.8-2.3c0.9,0,2.5,0.2,4.8,0.7s4.6,1.4,6.9,2.9c2.4,1.5,4.4,3.4,6.2,6c1.8,2.5,2.7,5.8,2.7,9.8
		c0,5.3-1.6,9.8-4.9,13.6c-3.3,3.8-7.5,6.9-12.6,9.2c-5.2,2.4-10.9,4.1-17.3,5.2C1614.4,294.2,1608.3,294.7,1602.3,294.7z
		 M1607.5,176c-4,0-7.4,1.1-10.2,3.4c-2.8,2.3-5.2,5.1-7.1,8.6c-1.9,3.4-3.4,7.2-4.3,11.4c-1,4.2-1.8,8.2-2.3,12
		c11.2-0.2,20.3-2.1,27.3-5.7c7-3.6,10.5-8.8,10.5-15.5c0-3.6-1.1-6.9-3.4-9.8C1615.6,177.4,1612.2,176,1607.5,176z"/>
	<path class="st1" d="M1765.8,268.1c0-4,0.3-9.2,1-15.6c0.6-6.4,1.3-13.2,1.9-20.4s1.3-14.1,1.9-20.8s1-12.3,1-16.8
		c0-4.7-1.1-8.9-3.4-12.6c-2.3-3.7-6.7-5.6-13.2-5.6c-6.3,0-11.6,1.5-15.8,4.6c-4.2,3.1-7.7,8.7-10.5,16.8
		c-2.8,8.2-5.1,19.4-6.9,33.7s-3.5,32.7-5.2,55.2c-0.2,2.2-0.6,3.6-1.4,4.3c-0.7,0.7-2.3,1.1-4.6,1.1h-9.8c-5.6,0-10.2-0.6-13.7-1.8
		c-3.5-1.2-6.3-2.9-8.4-5c-2.1-2.2-3.5-4.8-4.3-8s-1.2-6.8-1.2-11c0-2.7,0.1-6.6,0.4-11.5c0.3-5,0.8-11.9,1.5-20.6
		c0.7-8.8,1.6-19.9,2.6-33.4s2.2-30.2,3.7-50.1c0.2-4,0.6-6.3,1.4-7.1c0.5-0.5,2-0.8,4.3-0.8h10.6c5.4,0,9.9,0.6,13.4,1.9
		c3.5,1.3,6.4,2.9,8.6,5s3.7,4.5,4.6,7.3s1.4,5.7,1.6,8.6c5.6-9.6,12-16.3,19.3-20c7.2-3.7,16.3-5.6,27.2-5.6
		c7.6,0,14.2,0.8,19.8,2.4c5.6,1.6,10.3,4.4,14,8.3c3.7,3.9,6.5,9,8.3,15.2s2.7,14,2.7,23.2c0,2.9-0.2,7.1-0.5,12.5
		c-0.4,5.4-0.8,11.4-1.4,17.8c-0.5,6.4-1.1,13.1-1.8,20.1c-0.6,7-1.2,13.4-1.8,19.4c-0.5,6-1,11.2-1.4,15.8c-0.4,4.5-0.5,7.5-0.5,9
		c0,4-0.5,6.4-1.4,7.2c-0.9,0.8-2.9,1.2-6,1.2h-8.7c-5.8,0-10.5-0.5-14.1-1.6s-6.4-2.6-8.4-4.6s-3.4-4.5-4.2-7.5
		C1766.3,275.3,1765.8,271.9,1765.8,268.1z"/>
</g>
<g>
	<path class="st0" d="M304.9,0H81.3C36.6,0,0,36.6,0,81.3v194.3v29.3c0,44.7,36.6,81.3,81.3,81.3H305c44.7,0,81.3-36.6,81.3-81.3
		v-29.3V81.3C386.2,36.6,349.6,0,304.9,0z M204.4,287.1c-2.6,3.4-8,5-16.2,5H99.1c-9.2,0-15.7-1.5-19.4-4.5
		c-2.2-1.8-3.8-4.4-4.7-7.7c-0.6-2.2-0.9-4.7-0.9-7.6V256c0-0.9,0.2-2,0.7-3.3s0.9-2.3,1.2-3c1.6-3.1,5-6.9,10.2-11.4
		s11-9.4,17.7-14.7c6.6-5.3,13.6-10.9,20.9-16.8c7.3-6,14-12,20.1-18.2s11.1-12.3,15.1-18.3c4-6.1,6-11.9,6-17.5
		c0-4.5-1.5-8.4-4.6-11.5c-3.1-3.2-8.1-4.8-14.9-4.8c-4.3,0-7.9,1.2-10.7,3.5c-2.8,2.4-5.1,5.3-6.8,8.8s-3,7.4-3.8,11.7
		s-1.4,8.2-1.8,11.8c-0.4,1.8-1,3.1-1.8,3.8s-3.1,1.1-6.9,1.1c-20.1,0-30.2-9.7-30.2-29.1c0-9.4,2-17.4,6.1-23.9
		c4.1-6.5,9.5-11.9,16.2-16c6.7-4.2,14.2-7.2,22.4-9.1s16.6-2.9,25.1-2.9c12.1,0,22.2,1.6,30.2,4.8c8,3.2,14.3,7.2,19,12.2
		s8,10.5,9.8,16.6c1.8,6.1,2.7,11.9,2.7,17.5c0,8.7-1.6,17.1-4.8,25.1c-3.2,8.1-7.2,15.7-12.1,22.8c-4.9,7.2-10.4,13.9-16.4,20.1
		c-6.1,6.2-12,11.9-17.9,16.8c-5.9,5-11.4,9.3-16.4,13c-5.1,3.7-9,6.7-11.7,8.8h69c1.1,0,2.1,0.3,3,0.8s1.4,1.5,1.4,3l-1.1,16
		c-0.1,2.2-0.5,4.2-1,6C207.2,282.7,206,285.1,204.4,287.1z M297.9,281.2c-3,2.2-6.4,4.1-10.3,5.7s-8,2.4-12.4,2.4
		c-6.7,0-12.6-2.1-17.7-6.4c-1.1-1-2.2-2-3.3-3.1c-3.8-3.9-7.2-8.7-10.4-14.4c-4.1-7.4-7.8-16.3-11.3-26.5
		c-3.4-10.2-7-21.3-10.6-33.3l-28.4,14.8c0,0,16.9-21.2,24.6-37.3c4.8-10.1,8.5-24,8.5-24c6.2-7.6,24.5-36.7,41.3-57.9
		c0.5-0.7,1.3-1.7,2.3-2.9c1-1.2,2.1-2.3,3.3-3.4c1.2-1.1,2.4-2,3.8-2.9c1.4-0.8,2.7-1.2,3.9-1.2c2.4,0,5.1,1.2,8.1,3.7
		c3.1,2.4,6,5.4,8.7,9c2.7,3.5,5,7.2,6.9,10.9c1.9,3.7,2.9,6.8,2.9,9.4c0,5.3-4.7,13.1-14.1,23.5s-22.9,22.4-40.5,36
		c3.1,5.3,6.6,10.9,10.6,17s8,12.2,12,18.5c4,6.2,7.9,12.3,11.7,18.2c3.8,5.9,7.2,11.1,10.2,15.8c3,4.7,5.4,8.4,7.2,11.3
		c1.8,2.9,2.7,4.5,2.7,4.9c0,1.5-0.9,3.3-2.6,5.6c-1.4,1.8-3.1,3.6-5.3,5.3C299.1,280.4,298.5,280.8,297.9,281.2z"/>
</g>
</svg>
